<?xml version="1.0" standalone="no"?>
<!DOCTYPE svg PUBLIC "-//W3C//DTD SVG 20010904//EN"
 "http://www.w3.org/TR/2001/REC-SVG-20010904/DTD/svg10.dtd">
<svg version="1.0" xmlns="http://www.w3.org/2000/svg"
 width="244.000000pt" height="396.000000pt" viewBox="0 0 244.000000 396.000000"
 preserveAspectRatio="xMidYMid meet">

<g transform="translate(0.000000,396.000000) scale(0.100000,-0.100000)"
fill="#000000" stroke="none">
<path d="M735 2906 c-13 -10 -36 -12 -70 -9 -42 4 -56 1 -88 -21 -31 -21 -45
-25 -76 -20 -52 8 -106 -11 -132 -47 -15 -21 -29 -29 -50 -29 -47 0 -108 -36
-127 -76 -15 -33 -15 -37 0 -48 11 -8 14 -17 7 -27 -5 -8 -9 -24 -9 -36 0 -28
-16 -30 -25 -3 -17 53 -60 -10 -52 -77 4 -37 1 -52 -15 -74 -16 -21 -19 -36
-14 -71 6 -43 10 -134 7 -195 -1 -26 -5 -33 -20 -33 -22 0 -35 -30 -26 -59 3
-11 -2 -43 -11 -71 -39 -119 31 -327 122 -365 27 -11 34 -20 34 -41 0 -65 43
-187 92 -260 72 -107 68 -110 -128 -106 l-154 4 0 -621 0 -621 353 0 352 0 39
93 c55 130 91 233 127 361 17 61 35 117 39 124 4 9 15 0 35 -30 15 -24 62 -91
104 -151 69 -97 78 -107 102 -102 17 4 30 0 39 -10 26 -32 112 -88 146 -95 68
-15 104 -2 165 62 59 62 104 135 138 228 29 79 67 213 86 302 14 66 21 80 50
103 19 14 49 51 68 83 27 47 46 64 103 98 55 32 70 46 72 67 6 47 -21 47 -133
2 -11 -5 6 19 38 53 58 62 66 79 45 100 -22 22 -52 12 -103 -33 -27 -25 -51
-41 -53 -36 -1 4 11 37 28 72 37 79 38 106 5 121 -35 16 -55 -5 -97 -98 -18
-41 -36 -74 -40 -74 -3 0 -4 35 -1 78 6 98 -5 132 -46 132 -41 0 -47 -17 -54
-135 -3 -55 -10 -113 -17 -130 l-11 -30 -37 42 c-44 49 -76 67 -107 59 -38
-10 -39 -35 0 -77 19 -21 37 -50 40 -64 3 -14 8 -37 11 -52 3 -16 19 -49 35
-76 l29 -47 -34 -48 c-19 -26 -57 -85 -86 -132 -28 -47 -54 -85 -58 -85 -4 0
-62 61 -128 135 -66 74 -127 140 -135 147 -8 6 -87 48 -177 92 -89 44 -162 83
-162 85 0 3 33 21 74 40 126 61 222 167 271 299 16 43 20 47 52 47 27 0 45 10
89 51 62 60 98 128 115 222 10 56 10 72 -3 104 -9 23 -12 47 -7 58 4 11 10 32
13 48 4 18 13 27 26 27 23 0 50 36 50 67 0 19 -5 23 -30 23 -36 0 -39 18 -14
80 11 28 15 57 11 88 -4 32 -1 53 9 66 8 11 14 30 14 42 0 18 -6 23 -32 26
-31 3 -33 6 -38 49 -6 50 -21 75 -51 84 -12 4 -19 16 -19 30 0 46 -32 94 -75
115 -23 11 -46 20 -52 20 -5 0 -15 11 -21 25 -17 36 -66 62 -134 70 -63 8 -85
28 -55 50 29 21 -4 39 -61 32 -32 -4 -53 -1 -66 9 -25 18 -77 18 -101 0z m194
-496 c42 -32 101 -49 148 -43 28 5 31 2 37 -30 4 -21 18 -46 35 -60 15 -13 31
-37 34 -53 3 -16 10 -47 15 -70 5 -23 5 -51 0 -64 -5 -15 -3 -32 7 -52 8 -17
12 -41 9 -54 -6 -22 -7 -22 -30 -7 -40 26 -130 43 -261 50 -121 6 -123 6 -163
-20 -22 -15 -44 -27 -50 -27 -6 0 -27 17 -48 39 -31 32 -49 41 -112 56 -41 10
-129 19 -194 21 -66 2 -121 6 -124 8 -2 3 3 15 12 28 9 12 16 36 16 52 0 16 8
38 17 49 10 10 27 37 39 60 20 40 23 42 62 39 23 -2 54 3 71 12 22 12 36 13
56 6 37 -14 105 -12 135 4 22 13 27 11 55 -10 35 -27 103 -32 152 -13 l28 11
-33 14 c-39 17 -48 35 -32 63 17 32 73 28 119 -9z m-420 -381 c87 -18 101 -28
101 -66 l0 -34 -37 36 c-62 60 -132 67 -235 23 l-47 -20 25 -33 c51 -68 179
-99 252 -61 38 20 40 11 13 -49 -29 -65 -38 -68 -154 -63 -154 7 -167 20 -167
164 0 72 3 87 21 105 20 20 28 21 102 15 45 -4 101 -11 126 -17z m-401 -11
c14 -14 16 -57 3 -91 -5 -13 -6 -29 -1 -36 5 -9 9 -5 14 13 3 14 11 26 16 26
11 0 17 -24 24 -107 5 -55 3 -63 -12 -64 -15 -1 -15 -2 -1 -6 15 -4 35 -60 25
-70 -13 -13 -46 24 -76 81 -29 58 -33 76 -34 149 -1 107 10 137 42 105z m304
-67 c-5 -33 25 -71 56 -71 29 0 62 29 62 56 0 13 3 24 7 24 9 0 53 -42 53 -51
0 -12 -78 -39 -113 -39 -62 1 -159 63 -141 91 6 10 66 28 75 23 3 -2 4 -16 1
-33z m68 24 c0 -8 -9 -15 -20 -15 -11 0 -20 7 -20 15 0 8 9 15 20 15 11 0 20
-7 20 -15z m586 -16 c73 -18 77 -24 71 -94 -7 -76 -22 -127 -46 -157 -16 -19
-28 -23 -73 -22 -80 2 -166 23 -195 48 -19 17 -27 34 -31 74 -2 29 -1 52 2 52
4 0 23 -12 43 -27 28 -21 49 -28 99 -31 67 -5 106 6 157 41 l29 20 -29 24
c-88 74 -191 90 -256 40 -20 -15 -38 -27 -41 -27 -9 0 7 65 18 73 15 11 190 1
252 -14z m-108 -41 c-3 -7 -13 -13 -23 -13 -10 0 -20 6 -22 13 -3 7 5 12 22
12 17 0 25 -5 23 -12z m-225 -40 c3 -13 9 -49 12 -81 13 -105 74 -144 241
-154 137 -8 148 0 193 147 14 46 18 53 14 25 -8 -56 -91 -286 -110 -308 -9
-10 -23 -15 -30 -13 -7 3 -13 2 -13 -2 0 -7 -73 -45 -74 -39 -4 15 -28 45 -50
61 -22 17 -47 22 -134 26 l-106 5 27 18 c19 12 38 16 56 12 45 -10 75 29 51
65 -7 11 -10 7 -10 -19 0 -33 -1 -33 -35 -27 -25 5 -42 2 -57 -9 -32 -21 -55
-19 -84 10 -17 17 -36 25 -61 25 -34 0 -35 1 -29 30 3 19 2 29 -4 25 -6 -3
-10 -19 -10 -35 0 -28 15 -40 50 -40 11 0 30 -11 44 -25 30 -30 34 -30 -76 -4
-108 25 -149 20 -189 -23 -24 -27 -29 -29 -35 -15 -3 9 -13 17 -21 17 -8 0
-17 9 -20 20 -3 11 -12 20 -19 20 -20 0 -30 33 -38 127 l-6 81 33 -33 c41 -41
116 -59 228 -53 100 4 124 21 162 114 15 38 35 74 44 81 21 16 49 1 56 -29z
m152 11 c0 -23 8 -37 28 -53 26 -19 30 -19 55 -5 15 8 32 29 37 46 10 30 11
31 38 17 33 -18 34 -37 3 -57 -59 -39 -143 -33 -197 13 l-34 30 25 20 c35 27
45 25 45 -11z m449 5 c12 -31 6 -101 -15 -162 -25 -75 -107 -172 -144 -172
-22 0 -22 2 -12 30 8 22 18 30 37 31 18 1 20 3 7 6 -20 5 -20 19 5 84 15 41
36 69 50 69 6 0 8 -9 5 -20 -3 -11 -1 -20 4 -20 5 0 10 6 10 13 7 67 30 157
40 157 4 0 10 -7 13 -16z m-784 -406 c52 -14 110 -21 187 -22 62 0 113 -4 113
-8 0 -30 -223 -21 -329 14 -41 13 -77 30 -79 37 -3 10 0 12 14 7 11 -4 53 -17
94 -28z m-55 -35 c43 -12 110 -27 149 -32 80 -9 236 -3 236 10 0 5 5 9 10 9
18 0 11 -46 -11 -74 -29 -36 -70 -56 -119 -56 -48 0 -80 14 -80 35 0 8 -6 15
-12 16 -7 0 -26 2 -43 3 -17 1 -41 -6 -56 -17 -49 -35 -132 3 -168 76 -19 39
-20 50 -10 69 11 21 13 21 19 4 4 -13 30 -26 85 -43z m1183 -139 c1 -60 7
-113 12 -118 16 -16 41 16 83 106 22 49 46 88 53 88 23 0 16 -33 -26 -123 -65
-139 -50 -152 62 -52 39 36 75 65 80 65 22 0 1 -32 -62 -95 -62 -62 -87 -105
-61 -105 5 0 46 16 91 35 101 43 107 24 10 -33 -52 -30 -70 -48 -92 -87 -27
-50 -91 -115 -113 -115 -19 0 -39 -27 -24 -32 25 -8 -66 -330 -129 -453 -17
-33 -55 -86 -85 -118 -50 -53 -57 -57 -99 -57 -36 0 -55 8 -101 41 -32 22 -57
44 -57 50 0 22 31 20 50 -2 10 -13 20 -22 20 -19 0 3 2 39 3 80 2 91 29 150
169 375 70 113 99 151 116 153 12 2 22 7 22 12 0 4 -18 35 -40 67 -22 34 -44
83 -51 112 -6 31 -25 70 -45 96 -32 42 -32 45 -12 45 12 0 43 -22 73 -52 29
-29 65 -61 79 -71 15 -11 31 -36 40 -65 10 -35 16 -43 21 -29 11 26 -2 61 -34
96 -29 31 -30 32 -15 73 8 23 17 83 20 132 7 106 10 119 27 114 8 -3 13 -37
15 -114z m-1255 -120 c59 -60 124 -84 226 -84 62 0 81 -4 94 -18 15 -16 15
-20 1 -40 -25 -36 -68 -52 -140 -52 -126 0 -258 50 -302 115 -29 41 -26 79 6
83 12 2 27 12 32 23 16 29 34 23 83 -27z"/>
<path d="M460 2212 c-59 -7 -112 -38 -131 -75 -10 -17 -8 -17 28 -1 50 21 137
22 193 0 83 -33 92 -33 88 0 -2 22 -12 33 -40 46 -46 22 -105 35 -138 30z"/>
<path d="M882 2149 c-55 -11 -62 -15 -62 -44 l0 -24 93 5 c89 6 94 5 150 -24
46 -25 57 -28 57 -15 0 28 -74 89 -123 102 -51 12 -54 12 -115 0z"/>
</g>
</svg>
